<svg height="436pt" viewBox="0 -68 436.90667 436" width="436pt" xmlns="http://www.w3.org/2000/svg"><path d="m13.652344 246.160156h300.375v40.960938h-300.375zm0 0" fill="#f6d831"/><path d="m314.027344 300.773438h-300.375c-7.546875 0-13.652344-6.105469-13.652344-13.652344v-40.960938c0-7.546875 6.105469-13.652344 13.652344-13.652344h300.375c7.546875 0 13.652344 6.105469 13.652344 13.652344v40.960938c0 7.546875-6.105469 13.652344-13.652344 13.652344zm-286.71875-27.308594h273.066406v-13.652344h-273.066406zm0 0" fill="#5c128d"/><path d="m423.253906 177.894531c0 60.324219-48.902344 109.226563-109.226562 109.226563-60.324219 0-109.226563-48.902344-109.226563-109.226563s48.902344-109.226562 109.226563-109.226562c60.324218 0 109.226562 48.902343 109.226562 109.226562zm0 0" fill="#e86436"/><g fill="#5c128d"><path d="m314.027344 300.773438c-67.761719 0-122.878906-55.121094-122.878906-122.878907 0-67.761719 55.117187-122.882812 122.878906-122.882812 67.757812 0 122.878906 55.121093 122.878906 122.882812 0 67.757813-55.121094 122.878907-122.878906 122.878907zm0-218.453126c-52.695313 0-95.574219 42.878907-95.574219 95.574219 0 52.691407 42.878906 95.570313 95.574219 95.570313 52.691406 0 95.574218-42.878906 95.574218-95.570313 0-52.695312-42.882812-95.574219-95.574218-95.574219zm0 0"/><path d="m150.1875 191.546875c-7.546875 0-13.652344-6.105469-13.652344-13.652344 0-15 1.878906-29.949219 5.597656-44.386719 1.878907-7.308593 9.425782-11.683593 16.625-9.828124 7.308594 1.878906 11.707032 9.332031 9.828126 16.625-3.148438 12.226562-4.746094 24.878906-4.746094 37.585937 0 7.550781-6.105469 13.65625-13.652344 13.65625zm0 0"/><path d="m175.175781 104.507812c-2.480469 0-5.003906-.679687-7.253906-2.09375-6.386719-4.015624-8.308594-12.441406-4.296875-18.828124 10.921875-17.386719 24.667969-32.640626 40.828125-45.332032 5.960937-4.695312 14.535156-3.628906 19.171875 2.292969 4.667969 5.933594 3.628906 14.519531-2.292969 19.171875-13.707031 10.761719-25.332031 23.679688-34.585937 38.402344-2.601563 4.117187-7.027344 6.386718-11.570313 6.386718zm0 0"/><path d="m248.585938 41.308594c-5.265626 0-10.277344-3.054688-12.535157-8.1875-3.011719-6.921875.148438-14.960938 7.054688-17.988282 40.867187-17.8125 88.039062-19.492187 130.09375-4.613281 7.109375 2.507813 10.839843 10.308594 8.320312 17.414063-2.492187 7.121094-10.265625 10.839844-17.414062 8.320312-35.597657-12.558594-75.558594-11.160156-110.066407 3.90625-1.785156.785156-3.636718 1.148438-5.453124 1.148438zm0 0"/></g><path d="m368.640625 177.894531c0 30.160157-24.453125 54.613281-54.613281 54.613281-30.164063 0-54.613282-24.453124-54.613282-54.613281 0-30.164062 24.449219-54.613281 54.613282-54.613281 30.160156 0 54.613281 24.449219 54.613281 54.613281zm0 0" fill="#f6d831"/><path d="m314.027344 246.160156c-37.640625 0-68.265625-30.625-68.265625-68.265625s30.625-68.269531 68.265625-68.269531 68.265625 30.628906 68.265625 68.269531-30.625 68.265625-68.265625 68.265625zm0-109.226562c-22.585938 0-40.960938 18.375-40.960938 40.960937 0 22.585938 18.375 40.957031 40.960938 40.957031 22.585937 0 40.960937-18.371093 40.960937-40.957031 0-22.585937-18.375-40.960937-40.960937-40.960937zm0 0" fill="#5c128d"/><path d="m327.679688 177.894531c0 7.539063-6.113282 13.652344-13.652344 13.652344-7.542969 0-13.652344-6.113281-13.652344-13.652344 0-7.542969 6.109375-13.65625 13.652344-13.65625 7.539062 0 13.652344 6.113281 13.652344 13.65625zm0 0" fill="#5c128d"/><path d="m68.265625 300.773438c-7.546875 0-13.652344-6.105469-13.652344-13.652344v-27.308594c0-7.546875 6.105469-13.652344 13.652344-13.652344s13.65625 6.105469 13.65625 13.652344v27.308594c0 7.546875-6.109375 13.652344-13.65625 13.652344zm0 0" fill="#5c128d"/></svg>