<?xml version="1.0" encoding="iso-8859-1"?>
<!-- Generator: Adobe Illustrator 19.0.0, SVG Export Plug-In . SVG Version: 6.00 Build 0)  -->
<svg version="1.1" id="Capa_1" xmlns="http://www.w3.org/2000/svg" xmlns:xlink="http://www.w3.org/1999/xlink" x="0px" y="0px"
	 viewBox="0 0 512 512" style="enable-background:new 0 0 512 512;" xml:space="preserve">
<rect x="122.435" y="77.913" style="fill:#4BABEF;" width="233.739" height="233.739"/>
<rect x="44.522" y="445.217" style="fill:#3599D7;" width="189.217" height="44.522"/>
<path style="fill:#FFDE17;" d="M389.565,278.261c43.03,0,77.913-34.883,77.913-77.913s-34.883-77.913-77.913-77.913
	s-77.913,34.883-77.913,77.913C311.697,243.356,346.557,278.216,389.565,278.261z M345.043,222.609h22.261v11.13h44.522v-22.261
	h-44.522c-12.299,0-22.261-9.962-22.261-22.261v-22.261c0-12.299,9.962-22.261,22.261-22.261h11.13v-11.13h22.261v11.13h11.13
	c12.299,0,22.261,9.962,22.261,22.261v11.13h-22.261v-11.13h-44.522v22.261h44.522c12.299,0,22.261,9.962,22.261,22.261v22.261
	c0,12.299-9.962,22.261-22.261,22.261h-11.13v11.13h-22.261V256h-11.13c-12.299,0-22.261-9.962-22.261-22.261V222.609z"/>
<path style="fill:#F7F6E7;" d="M111.304,222.609v-73.305l-34.738,34.749c-6.244,6.278-9.761,14.759-9.784,23.608v215.296h133.565
	v-11.13c0-6.144,4.986-11.13,11.13-11.13h-44.522c-13.824,0-27.158-5.165-37.387-14.47c-5.855,2.137-12.032,3.272-18.265,3.339
	v-22.261c18.443,0,33.391-14.948,33.391-33.391v-33.391c0-2.95,1.169-5.788,3.261-7.869l54.539-54.539
	c4.808-4.797,8.047-10.941,9.294-17.619c1.859-10.819-1.614-21.882-9.338-29.685l-7.791-7.791l-47.482,47.405
	c-2.07,2.093-4.875,3.295-7.825,3.317h-28.049V222.609z"/>
<path d="M333.913,311.652H166.957v-6.522l51.278-51.278c21.749-21.649,21.827-56.832,0.167-78.581
	c-0.056-0.056-0.111-0.111-0.167-0.167l-7.791-7.791c-8.715-8.704-22.829-8.704-31.544,0l-44.166,44.166h-1.169V89.043h200.348
	v11.13h22.261V55.652C356.141,24.932,331.242,0.033,300.522,0H166.957c-30.72,0.033-55.619,24.932-55.652,55.652v62.175
	l-50.477,50.488c-10.474,10.407-16.339,24.576-16.306,39.346v215.296h-11.13c-6.144,0-11.13,4.986-11.13,11.13v66.783
	c0,6.144,4.986,11.13,11.13,11.13H244.87c6.144,0,11.13-4.986,11.13-11.13v-66.783c0-6.144-4.986-11.13-11.13-11.13h-22.261v-1.113
	c13.256-2.771,25.043-10.296,33.135-21.148h44.778c30.72-0.033,55.619-24.932,55.652-55.652v-43.832h-22.261V311.652z
	 M133.565,55.652c0-18.443,14.948-33.391,33.391-33.391h133.565c18.443,0,33.391,14.948,33.391,33.391v11.13H133.565V55.652z
	 M66.783,207.661c0.022-8.849,3.539-17.33,9.784-23.608l34.738-34.749v84.435h28.049c2.95,0,5.788-1.169,7.869-3.261l47.482-47.405
	l7.791,7.791c7.725,7.802,11.197,18.866,9.338,29.685c-1.247,6.678-4.486,12.822-9.294,17.619l-54.539,54.539
	c-2.093,2.07-3.284,4.875-3.306,7.814v33.391c0,18.443-14.948,33.391-33.391,33.391v22.261c6.233-0.067,12.41-1.202,18.265-3.339
	c10.229,9.305,23.563,14.47,37.387,14.47h44.522c-6.144,0-11.13,4.986-11.13,11.13v11.13H66.783V207.661z M233.739,445.217v44.522
	H44.522v-44.522H233.739z M333.913,345.043c0,18.443-14.948,33.391-33.391,33.391H166.957c-5.944-0.045-11.765-1.681-16.863-4.742
	c10.774-10.429,16.851-24.787,16.863-39.78h166.957V345.043z"/>
<path d="M389.565,100.174c-55.329,0-100.174,44.845-100.174,100.174s44.845,100.174,100.174,100.174s100.174-44.845,100.174-100.174
	C489.672,145.052,444.861,100.241,389.565,100.174z M389.565,278.261c-43.03,0-77.913-34.883-77.913-77.913
	s34.883-77.913,77.913-77.913s77.913,34.883,77.913,77.913C467.434,243.356,432.573,278.216,389.565,278.261z"/>
<path d="M411.826,144.696h-11.13v-11.13h-22.261v11.13h-11.13c-12.299,0-22.261,9.962-22.261,22.261v22.261
	c0,12.299,9.962,22.261,22.261,22.261h44.522v22.261h-44.522v-11.13h-22.261v11.13c0,12.299,9.962,22.261,22.261,22.261h11.13v11.13
	h22.261V256h11.13c12.299,0,22.261-9.962,22.261-22.261v-22.261c0-12.299-9.962-22.261-22.261-22.261h-44.522v-22.261h44.522v11.13
	h22.261v-11.13C434.087,154.657,424.125,144.696,411.826,144.696z"/>
<path d="M144.696,111.304v33.391h22.261v-22.261h22.261v-22.261h-33.391C149.682,100.174,144.696,105.16,144.696,111.304z"/>
<g>
</g>
<g>
</g>
<g>
</g>
<g>
</g>
<g>
</g>
<g>
</g>
<g>
</g>
<g>
</g>
<g>
</g>
<g>
</g>
<g>
</g>
<g>
</g>
<g>
</g>
<g>
</g>
<g>
</g>
</svg>
